<mxfile host="app.diagrams.net" modified="2022-02-16T15:01:38.152Z" agent="5.0 (Windows NT 10.0; Win64; x64) AppleWebKit/537.36 (KHTML, like Gecko) Chrome/98.0.4758.82 Safari/537.36" etag="5Djj_LNHDCeBveB6guQo" version="16.5.6" type="github">
  <diagram id="pb4SdE6-r2ZsqCLpavfr" name="Page-1">
    <mxGraphModel dx="1038" dy="547" grid="1" gridSize="10" guides="1" tooltips="1" connect="1" arrows="1" fold="1" page="1" pageScale="1" pageWidth="827" pageHeight="1169" math="0" shadow="0">
      <root>
        <mxCell id="0" />
        <mxCell id="1" parent="0" />
        <mxCell id="zKxOlCtOejwHsQ1bgcev-1" value="Danh sách nhân viên" style="whiteSpace=wrap;html=1;" parent="1" vertex="1">
          <mxGeometry x="10" y="20" width="350" height="260" as="geometry" />
        </mxCell>
        <mxCell id="KNncjrBmfiQTa96TtwuM-1" value="Danh sách phòng ban" style="whiteSpace=wrap;html=1;" vertex="1" parent="1">
          <mxGeometry x="410" y="20" width="350" height="260" as="geometry" />
        </mxCell>
        <mxCell id="KNncjrBmfiQTa96TtwuM-2" value="Bảng lương nhân viên" style="whiteSpace=wrap;html=1;" vertex="1" parent="1">
          <mxGeometry x="10" y="290" width="350" height="260" as="geometry" />
        </mxCell>
      </root>
    </mxGraphModel>
  </diagram>
</mxfile>
